HIERARCHY
ROOT hip
{
	OFFSET 0.000000 0.000000 0.000000 
	CHANNELS 6 Xposition Yposition Zposition Xrotation Zrotation Yrotation
	JOINT abdomen
	{
		OFFSET 0.000000 3.402643 0.000000 
		CHANNELS 3 Xrotation Zrotation Yrotation
		JOINT chest
		{
			OFFSET 0.000000 8.438565 -0.680529 
			CHANNELS 3 Xrotation Zrotation Yrotation
			JOINT neck
			{
				OFFSET 0.000000 10.207942 -0.272212 
				CHANNELS 3 Xrotation Zrotation Yrotation
				JOINT head
				{
					OFFSET 0.000000 3.130431 0.000000 
					CHANNELS 3 Xrotation Zrotation Yrotation
					End Site
					{
						OFFSET 0.000000 3.130435 0.000000 
					}
				}
			}
			JOINT lCollar
			{
				OFFSET 3.470700 6.669187 -0.816635 
				CHANNELS 3 Yrotation Zrotation Xrotation
				JOINT lShldr
				{
					OFFSET 3.198488 0.000000 0.000000 
					CHANNELS 3 Zrotation Yrotation Xrotation
					JOINT lForeArm
					{
						OFFSET 10.139888 0.000000 0.000000 
						CHANNELS 3 Yrotation Zrotation Xrotation
						JOINT lHand
						{
							OFFSET 8.370511 0.000000 0.000000 
							CHANNELS 3 Zrotation Yrotation Xrotation
							End Site
							{
								OFFSET 4.083176 0.000000 0.000000 
							}
						}
					}
				}
			}
			JOINT rCollar
			{
				OFFSET -3.470700 6.669187 -0.816635 
				CHANNELS 3 Yrotation Zrotation Xrotation
				JOINT rShldr
				{
					OFFSET -3.198488 0.000000 0.000000 
					CHANNELS 3 Zrotation Yrotation Xrotation
					JOINT rForeArm
					{
						OFFSET -10.139888 0.000000 0.000000 
						CHANNELS 3 Yrotation Zrotation Xrotation
						JOINT rHand
						{
							OFFSET -8.370511 0.000000 0.000000 
							CHANNELS 3 Zrotation Yrotation Xrotation
							End Site
							{
								OFFSET -4.083176 0.000000 0.000000 
							}
						}
					}
				}
			}
		}
	}
	JOINT lThigh
	{
		OFFSET 5.308129 -1.633274 1.361059 
		CHANNELS 3 Xrotation Zrotation Yrotation
		JOINT lShin
		{
			OFFSET -2.041588 -20.007561 0.000000 
			CHANNELS 3 Xrotation Zrotation Yrotation
			JOINT lFoot
			{
				OFFSET 0.000000 -19.190928 -1.224953 
				CHANNELS 3 Xrotation Yrotation Zrotation
				End Site
				{
					OFFSET 0.000000 -2.449906 4.627600 
				}
			}
		}
	}
	JOINT rThigh
	{
		OFFSET -5.308129 -1.633274 1.361059 
		CHANNELS 3 Xrotation Zrotation Yrotation
		JOINT rShin
		{
			OFFSET 2.041588 -20.007561 0.000000 
			CHANNELS 3 Xrotation Zrotation Yrotation
			JOINT rFoot
			{
				OFFSET 0.000000 -19.190928 -1.224953 
				CHANNELS 3 Xrotation Yrotation Zrotation
				End Site
				{
					OFFSET 0.000000 -2.449906 4.627600 
				}
			}
		}
	}
}
MOTION
Frames: 13
Frame Time: 0.033333
13.867357 11.381949 60.232677 -69.390602 -22.990728 69.494316 58.640118 3.614950 35.609104 5.019107 -0.166015 0.146484 45.190308 -5.203167 -5.207516 -52.334419 -0.386139 8.691603 1.155478 17.531782 -0.401345 -78.747276 -33.956032 0.206332 -114.291016 3.487385 69.129189 5.335080 34.216541 -4.724780 -18.044514 -3.299039 -1.088160 36.349625 16.832155 -22.427279 116.410454 -0.453903 20.100380 10.323997 -2.519454 -2.748996 -48.681541 14.638931 0.747408 134.522079 -5.153289 -49.533554 7.076381 0.724316 -1.510282 -48.345882 -26.472506 -1.612600 81.001686 -19.353699 8.730777 -17.363245 0.047254 -0.017669 
13.807931 11.987851 61.192711 -67.486107 -22.056971 72.961952 61.239925 4.448351 37.436729 5.019107 -0.166015 0.146484 46.720570 -4.602475 -4.879690 -56.365562 -1.373129 8.029470 -2.245900 16.422878 0.617930 -73.250359 -34.269302 -3.760235 -115.100174 3.640145 72.993637 2.982669 32.092472 -4.388920 -19.774704 -2.011117 -0.763035 33.374603 12.747585 -25.769136 117.736710 -0.443132 20.011843 10.061219 -2.528659 -2.756590 -49.075256 12.459039 0.620373 135.790146 -2.448579 -46.733299 8.062975 0.705547 -1.496848 -52.502586 -24.830511 -1.539731 80.203888 -20.331450 10.382511 -17.539049 0.033656 -0.025305 
13.811141 12.666280 62.322285 -66.045967 -21.160297 76.163376 62.719051 5.297762 35.330059 5.019107 -0.166015 0.146484 47.418873 -5.305291 -5.757445 -59.083656 1.000582 9.874597 -3.615830 15.608218 0.950795 -66.894638 -32.112450 -10.075864 -115.907829 3.713722 74.507217 2.244345 29.818041 -4.245901 -16.812399 -0.901366 -0.345846 33.588585 7.517806 -28.937428 118.181564 -0.468622 20.499105 9.567707 -2.581265 -2.798650 -49.205212 11.073655 0.532667 136.372177 -0.525146 -42.242779 9.576598 0.702310 -1.479289 -56.087387 -23.591187 -1.397845 79.442261 -20.106829 12.280952 -17.412073 0.047201 -0.017680 
13.814381 13.344749 63.451950 -64.550629 -20.341818 79.356529 64.161148 6.193573 33.237400 5.019107 -0.166015 0.146484 48.128010 -5.994994 -6.638733 -61.732754 3.453520 11.603650 -4.961020 14.790430 1.258385 -61.005257 -29.404907 -15.936928 -116.718040 3.752245 76.021942 1.507334 27.550718 -4.079204 -13.857536 0.227358 0.028444 34.079830 2.299072 -32.086277 118.619499 -0.501374 20.984369 9.073359 -2.626692 -2.829285 -49.336102 9.678205 0.440274 137.117233 1.379973 -37.720631 11.100291 0.704880 -1.490484 -59.633724 -22.341858 -1.346470 78.686676 -19.860447 14.165881 -17.294867 0.052175 -0.003837 
13.860030 14.089798 64.696564 -63.369129 -19.355989 82.505524 65.015976 6.759691 28.960835 5.019107 -0.166015 0.146484 47.565971 -7.455819 -8.057158 -62.665680 7.543029 14.356608 -4.560067 14.719007 1.145509 -55.810760 -25.708765 -21.528786 -117.169174 3.707364 75.252037 2.027638 25.889261 -4.035146 -9.202998 1.391031 0.154194 36.643444 -2.697973 -34.452576 117.932861 -0.560054 22.080341 8.784186 -2.458121 -2.847193 -49.458744 9.061727 0.412185 137.176712 2.853476 -31.181114 12.545709 0.685142 -1.477238 -62.250393 -21.785267 -1.283959 78.101128 -18.298119 16.261644 -17.060492 0.044829 0.014078 
13.905710 14.834891 65.941238 -62.126484 -18.438074 85.652679 65.832977 7.381312 24.701504 5.019107 -0.166015 0.146484 47.040279 -8.931331 -9.471460 -63.394886 11.674244 17.083885 -4.149796 14.656075 1.034980 -51.168549 -21.602930 -26.587732 -117.631569 3.672416 74.476547 2.546257 24.228634 -4.007931 -4.539089 2.554460 0.175057 39.428020 -7.597425 -37.050713 117.253342 -0.648351 23.182449 8.495208 -2.288367 -2.876535 -49.564831 8.445771 0.384220 137.419159 4.314080 -24.629967 14.020061 0.701806 -1.464746 -64.851677 -21.220373 -1.253526 77.573364 -16.706007 18.328648 -16.816383 0.036190 -0.012991 
13.995601 15.638036 67.236732 -60.944714 -17.004776 88.870338 66.614990 7.711276 19.293421 5.019107 -0.166015 0.146484 45.377331 -10.361507 -10.297286 -63.095238 16.009096 20.131306 -2.182897 15.058692 0.544410 -47.224937 -18.069952 -30.388298 -116.955490 3.602108 72.434975 3.657244 22.886648 -4.022590 0.141152 3.710772 -0.068848 42.939217 -11.696281 -38.252197 115.472260 -0.745834 24.651531 8.367277 -2.036178 -2.883263 -49.617294 8.613274 0.376369 137.177307 5.708857 -17.376163 14.557544 0.672058 -1.472560 -66.237320 -21.444658 -1.281082 77.476997 -14.245908 20.197222 -16.650370 0.035893 -0.013205 
14.085539 16.441181 68.532272 -59.682549 -15.644917 92.094940 67.351875 8.118172 13.892194 5.019107 -0.166015 0.146484 43.721058 -11.813449 -11.079268 -62.554718 20.309517 23.273497 -0.215881 15.458840 0.040252 -43.613998 -14.305363 -33.853493 -116.277916 3.498908 70.396858 4.761216 21.550518 -4.058211 4.840232 4.837744 -0.420239 46.601467 -15.707190 -39.722561 113.696335 -0.886711 26.124731 8.239120 -1.784039 -2.891082 -49.658287 8.789468 0.363244 137.126373 7.122799 -10.121429 15.114046 0.675059 -1.462438 -67.612991 -21.678478 -1.293135 77.463875 -11.773200 22.019447 -16.503830 0.065013 -0.019199 
14.234553 17.240715 69.859131 -58.294464 -13.851391 95.249710 67.882393 8.360423 8.283176 5.019107 -0.166015 0.146484 41.345623 -12.581235 -10.849940 -61.159073 23.686293 26.452309 2.816890 15.861998 -0.802670 -40.274986 -12.156273 -35.350376 -113.963860 3.452990 67.968254 6.045587 20.216459 -4.075530 8.512558 6.156584 -0.962282 49.193153 -18.680143 -39.247471 111.051254 -0.939663 26.807987 8.032677 -1.535906 -2.897899 -49.743736 9.843488 0.446640 136.624069 8.471231 -3.879222 14.645005 0.688433 -1.448800 -68.045067 -22.372519 -1.356912 78.241302 -9.120695 23.477964 -16.582027 0.019030 -0.022594 
14.383624 18.040182 71.186012 -56.823803 -12.124207 98.420959 68.370293 8.652868 2.668393 5.019107 -0.166015 0.146484 38.962646 -13.342093 -10.582238 -59.526165 26.970425 29.811707 5.860105 16.238525 -1.673402 -37.022820 -9.924524 -36.706886 -111.638077 3.297754 65.552834 7.320074 18.888353 -4.123150 12.203797 7.433660 -1.599568 51.795799 -21.659948 -38.893089 108.409424 -1.030340 27.491339 7.826719 -1.296189 -2.917475 -49.813751 10.898378 0.517276 136.271347 9.858363 2.342972 14.176019 0.704473 -1.444338 -68.475769 -23.076029 -1.415158 79.081573 -6.484140 24.939835 -16.669914 -0.016021 -0.008917 
14.598792 18.750582 72.506882 -55.107391 -10.297710 101.125977 68.123123 8.840258 -2.361772 5.019107 -0.166015 0.146484 36.419952 -13.264352 -9.635716 -57.068501 28.645678 32.900623 8.958431 16.469498 -2.602256 -34.139488 -9.487136 -35.673275 -107.707016 3.302097 63.654045 8.444140 18.108360 -4.157387 14.476567 8.845085 -2.301258 52.137257 -23.781380 -36.764927 105.746033 -1.023545 26.669781 7.750173 -1.121738 -2.921221 -49.752419 12.675189 0.629860 135.343689 10.816023 7.679067 13.277579 0.689845 -1.436839 -68.400948 -23.776752 -1.457318 80.836624 -4.158466 26.040718 -16.992182 0.014387 -0.003011 
14.814015 19.460896 73.827705 -53.318508 -8.554241 103.878441 67.861908 8.998219 -7.384884 5.019107 -0.166015 0.146484 33.878273 -13.153204 -8.698573 -54.486866 30.195498 36.103828 12.061747 16.661488 -3.544492 -31.252834 -9.123411 -34.620811 -103.781006 3.166374 61.752499 9.576402 17.332441 -4.192854 16.765358 10.216629 -3.049569 52.392689 -25.907934 -34.613564 103.078804 -0.962960 25.846367 7.682789 -0.937138 -2.924289 -49.681564 14.451398 0.762536 134.508408 11.848825 13.009092 12.389136 0.678150 -1.448809 -68.341103 -24.479210 -1.517531 82.652321 -1.882852 27.217686 -17.314402 0.039162 0.022086 
15.094309 20.063919 75.079178 -51.439625 -6.932020 105.926193 66.510017 9.161617 -10.872199 5.019107 -0.166015 0.146484 32.160473 -12.457103 -7.753556 -52.117416 29.857466 38.140858 13.548522 16.724693 -4.015984 -29.073698 -10.107876 -31.967764 -98.449081 3.183906 60.179466 9.747531 17.165714 -4.195613 17.253740 11.036237 -3.404778 51.106178 -26.949656 -31.546431 101.335289 -0.922274 24.770267 8.167100 -0.858425 -2.894895 -49.109558 16.532763 0.896391 133.115448 12.243011 18.063770 11.187053 0.735184 -1.442110 -67.952606 -24.792486 -1.528914 85.143852 0.255133 27.633820 -17.529274 0.030010 0.005906 
